<svg width="26" height="26" viewBox="0 0 26 26" fill="none" xmlns="http://www.w3.org/2000/svg">
<rect x="0.5" y="0.5" width="25" height="25" rx="12.5" stroke="#DFDEDE"/>
<path d="M12.272 18.114C11.92 18.114 11.552 18.084 11.168 18.024C10.788 17.964 10.426 17.874 10.082 17.754V16.914C10.33 16.998 10.58 17.068 10.832 17.124C11.088 17.176 11.338 17.216 11.582 17.244C11.826 17.272 12.06 17.286 12.284 17.286C13.02 17.286 13.564 17.148 13.916 16.872C14.268 16.592 14.444 16.186 14.444 15.654C14.444 15.202 14.31 14.858 14.042 14.622C13.778 14.382 13.326 14.178 12.686 14.01L12.206 13.884C11.45 13.692 10.884 13.402 10.508 13.014C10.132 12.622 9.944 12.106 9.944 11.466C9.944 10.702 10.208 10.102 10.736 9.666C11.268 9.226 12.058 9.006 13.106 9.006C13.45 9.006 13.79 9.03 14.126 9.078C14.462 9.122 14.768 9.188 15.044 9.276V10.116C14.74 10.02 14.426 9.95 14.102 9.906C13.782 9.858 13.458 9.834 13.13 9.834C12.622 9.834 12.206 9.896 11.882 10.02C11.558 10.144 11.318 10.324 11.162 10.56C11.006 10.796 10.928 11.08 10.928 11.412C10.928 11.848 11.05 12.186 11.294 12.426C11.538 12.666 11.96 12.866 12.56 13.026L13.046 13.146C13.59 13.286 14.038 13.466 14.39 13.686C14.742 13.902 15.004 14.168 15.176 14.484C15.348 14.796 15.434 15.166 15.434 15.594C15.434 16.13 15.31 16.586 15.062 16.962C14.814 17.334 14.454 17.62 13.982 17.82C13.51 18.016 12.94 18.114 12.272 18.114Z" fill="#292526"/>
</svg>
